<svg version="1.1" preserveAspectRatio="xMidYMid meet" xmlns="http://www.w3.org/2000/svg" xmlns:xlink="http://www.w3.org/1999/xlink" viewBox="-166.667 0 1333.333 1000" style="cursor: pointer;"><defs><radialGradient id="gradient-63aaaa4f-bc57-48dd-a1b1-834d8b6c4b5d" gradientUnits="objectBoundingBox" gradientTransform="translate(0.5, 0.5) scale(1, 1.333) translate(-0.5, -0.5)" cx="0.5" cy="-0.207" r="1.207"><stop offset="0" stop-color="#aa973d" stop-opacity="1"></stop><stop offset="0.125" stop-color="#a09a3e" stop-opacity="1"></stop><stop offset="0.25" stop-color="#959d41" stop-opacity="1"></stop><stop offset="0.375" stop-color="#8aa045" stop-opacity="1"></stop><stop offset="0.5" stop-color="#7fa24b" stop-opacity="1"></stop><stop offset="0.625" stop-color="#73a452" stop-opacity="1"></stop><stop offset="0.75" stop-color="#66a65a" stop-opacity="1"></stop><stop offset="0.875" stop-color="#58a863" stop-opacity="1"></stop><stop offset="1" stop-color="#47a96c" stop-opacity="1"></stop></radialGradient><path d="M799.656,500 A299.656,299.656 0 1 0 200.344,500 A299.656,299.656 0 1 0 799.656,500 Z" stroke-linecap="round" stroke-linejoin="round" stroke-miterlimit="25" id="def-f2ff6420-0505-417c-b2e0-4139ae06ed83"></path><g transform="matrix(0.496, 0, 0, 0.496, 479.641, 345.797)" fill="#fff" stroke="none" stroke-width="1" id="def-9a3935ea-242e-4f03-8f08-aacd0ce79438"><g transform="translate(-4.468, -7.735)"><g></g><g><path d=" M68.963,30.378 H83.41 C78.893,18.771,68.238,10.294,55.525,9.06 l1.266,1.1 C57.232,10.544,65.324,17.757,68.963,30.378 z"></path><path d=" M54.592,12.757 L50.984,9.62 c-0.342 -0.229 -0.342,0.234 -0.342,0.607 v20.15 h14.766 C61.871,19.241,54.689,12.843,54.592,12.757 z"></path><path d=" M50.643,74.989 c0,0.383,0.148,0.721,0.359,1.008 l3.059 -2.369 c0.037 -0.037,7.613 -6.885,11.303 -18.375 H50.643 V74.989 z"></path><path d=" M68.93,55.253 C65.154,68.228,56.652,75.874,56.191,76.28 l-0.242,0.188 c12.506 -1.377,22.963 -9.764,27.441 -21.215 H68.93 z"></path><path d=" M85.74,42.79 c0 -3.111 -0.424 -6.123 -1.201 -8.986 H69.807 c0.566,2.779,0.904,5.777,0.904,8.986 c0,3.215 -0.344,6.234 -0.928,9.041 h14.74 C85.311,48.95,85.74,45.923,85.74,42.79 z"></path><path d=" M50.643,51.831 h15.658 c0.643 -2.797,1.037 -5.814,1.037 -9.041 s-0.383 -6.223 -1.004 -8.986 H50.643 V51.831 z"></path><path d=" M32.705,78.384 h0.002 c3.014,0,5.926 -0.574,8.688 -1.65 l5.408,5.338 c0.328,0.326,0.756,0.486,1.184,0.486 c0.438,0,0.871 -0.168,1.201 -0.502 c0.654 -0.662,0.648 -1.73 -0.016 -2.387 l-4.188 -4.135 c0.094 -0.211,0.15 -0.439,0.15 -0.686 V45.46 L30.027,32.849 c-0.715 -0.596 -0.811 -1.66 -0.213 -2.375 c0.594 -0.715,1.658 -0.814,2.377 -0.215 l12.943,10.807 V9.796 c0 -0.541 -0.245 -1.073 -0.699 -1.367 c-0.727 -0.47 -2.408,0.061 -2.408,0.061 c-0.004,0.002 -0.008,0.002 -0.012,0.004 c-14.436,4.77 -24.221,16.824 -24.691,30.199 c-1.012 -0.117 -2.01 -0.18 -2.982 -0.18 c-2.699,0 -5.119,0.459 -7.191,1.365 c-0.391,0.17 -0.703,0.48 -0.873,0.871 c-3.895,8.938,1.439,22.883,8.861,30.301 C19.869,75.778,26.105,78.384,32.705,78.384 z M9.123,42.722 c1.51 -0.553,3.262 -0.832,5.219 -0.832 c7.057,0,15.918,3.734,21.066,8.883 c5.518,5.514,7.59,13.58,5.566,20.801 L29.211,59.96 l-0.074 -8.387 c-0.008 -0.928 -0.762 -1.672 -1.688 -1.672 c-0.006,0 -0.01,0 -0.016,0 c-0.932,0.008 -1.68,0.77 -1.672,1.701 l0.045,4.996 l-5.729 -5.656 c-0.662 -0.654 -1.73 -0.648 -2.387,0.016 c-0.654,0.664 -0.648,1.732,0.016,2.387 l8.59,8.48 c0.037,0.041,0.076,0.078,0.117,0.115 l3.244,3.203 l-8.607 -0.842 c-0.918 -0.082 -1.752,0.588 -1.844,1.516 c-0.09,0.928,0.586,1.752,1.514,1.844 l12.752,1.248 l5.264,5.197 c-1.939,0.592 -3.955,0.902 -6.029,0.902 h-0.002 c-5.697,0 -11.088 -2.254 -15.18 -6.346 C11.199,62.341,6.346,50.329,9.123,42.722 z"></path></g></g></g><path d="M325.097,454.71 L325.097,454.71 Q325.097,460.705,326.783,466.012 Q328.469,471.32,331.716,475.191 Q334.963,479.063,339.771,481.311 Q344.579,483.559,350.823,483.559 L350.823,483.559 Q356.693,483.559,361.001,481.436 Q365.31,479.313,368.307,475.691 Q371.305,472.069,372.991,467.324 Q374.677,462.578,375.051,457.333 L375.051,457.333 L345.953,457.333 Q343.954,457.333,343.954,455.335 L343.954,455.335 Q343.954,454.46,344.516,453.836 Q345.078,453.211,345.953,453.211 L345.953,453.211 L377.174,453.211 Q378.048,453.211,378.61,453.836 Q379.172,454.46,379.172,455.335 L379.172,455.335 Q379.172,462.453,377.112,468.385 Q375.051,474.317,371.305,478.626 Q367.558,482.934,362.313,485.307 Q357.068,487.68,350.823,487.68 L350.823,487.68 Q343.705,487.68,338.085,485.057 Q332.465,482.435,328.718,477.939 Q324.972,473.443,322.974,467.448 Q320.975,461.454,320.975,454.71 L320.975,454.71 Q320.975,447.217,323.598,441.16 Q326.221,435.103,330.467,430.857 Q334.713,426.611,340.083,424.363 Q345.453,422.115,350.823,422.115 L350.823,422.115 Q355.069,422.115,359.378,423.364 Q363.687,424.612,367.433,426.86 L367.433,426.86 Q368.058,427.235,368.307,428.109 Q368.557,428.983,368.058,429.608 L368.058,429.608 Q367.558,430.607,366.309,430.607 L366.309,430.607 Q365.56,430.607,365.31,430.357 L365.31,430.357 Q362.063,428.359,358.254,427.298 Q354.445,426.236,350.823,426.236 L350.823,426.236 Q345.078,426.236,340.333,428.671 Q335.587,431.107,332.215,435.103 Q328.843,439.099,326.97,444.22 Q325.097,449.34,325.097,454.71 Z M364.061,468.448 L364.061,468.448 L345.953,468.448 Q345.078,468.448,344.516,467.823 Q343.954,467.199,343.954,466.325 L343.954,466.325 Q343.954,464.326,345.953,464.326 L345.953,464.326 L364.061,464.326 Q366.184,464.326,366.184,466.325 L366.184,466.325 Q366.184,467.199,365.622,467.823 Q365.06,468.448,364.061,468.448 Z M350.948,499.045 L350.948,499.045 Q342.331,499.045,334.9,495.61 Q327.469,492.176,321.974,486.181 Q316.479,480.187,313.295,472.132 Q310.11,464.077,310.11,454.71 L310.11,454.71 Q310.11,445.843,313.108,437.913 Q316.105,429.983,321.537,424.05 Q326.97,418.118,334.588,414.622 Q342.206,411.125,351.323,411.125 L351.323,411.125 Q356.568,411.125,361.813,412.623 Q367.058,414.122,371.742,416.807 Q376.425,419.492,380.359,423.301 Q384.293,427.11,386.915,431.606 L386.915,431.606 Q387.415,432.355,387.165,433.167 Q386.915,433.979,386.291,434.478 L386.291,434.478 Q385.916,434.728,385.167,434.728 L385.167,434.728 Q384.043,434.728,383.419,433.729 L383.419,433.729 Q380.921,429.608,377.424,426.236 Q373.927,422.864,369.744,420.429 Q365.56,417.993,360.814,416.62 Q356.068,415.246,351.323,415.246 L351.323,415.246 Q342.955,415.246,336.149,418.368 Q329.343,421.49,324.472,426.923 Q319.602,432.355,316.917,439.536 Q314.232,446.717,314.232,454.71 L314.232,454.71 Q314.232,463.077,317.041,470.446 Q319.851,477.814,324.847,483.184 Q329.842,488.554,336.524,491.676 Q343.205,494.799,350.948,494.799 L350.948,494.799 Q359.69,494.799,366.184,491.552 Q372.678,488.305,377.049,482.747 Q381.42,477.19,383.918,470.009 Q386.416,462.828,387.415,454.96 L387.415,454.96 Q387.54,454.086,388.164,453.524 Q388.789,452.962,389.663,453.211 L389.663,453.211 Q391.661,453.461,391.411,455.459 L391.411,455.459 Q390.287,465.7,386.915,473.755 Q383.543,481.81,378.361,487.43 Q373.178,493.05,366.247,496.047 Q359.315,499.045,350.948,499.045 Z M371.804,435.228 L371.804,435.228 Q370.43,434.728,369.931,433.916 Q369.431,433.105,369.681,432.231 L369.681,432.231 L369.681,432.106 Q370.056,430.607,371.804,430.607 L371.804,430.607 Q372.304,430.607,372.553,430.732 L372.553,430.732 Q373.428,430.982,373.802,431.793 Q374.177,432.605,373.927,433.604 L373.927,433.604 Q373.303,435.228,371.804,435.228 Z M422.258,472.319 L422.258,472.319 Q424.256,472.319,424.256,474.317 L424.256,474.317 L424.256,496.047 Q424.256,498.171,422.258,498.171 L422.258,498.171 Q421.384,498.171,420.76,497.609 Q420.135,497.047,420.135,496.047 L420.135,496.047 L420.135,474.317 Q420.135,473.443,420.76,472.881 Q421.384,472.319,422.258,472.319 Z M423.507,452.962 L447.61,489.054 Q448.11,489.678,447.922,490.552 Q447.735,491.427,447.111,491.926 L447.111,491.926 Q446.611,492.301,445.862,492.301 L445.862,492.301 Q444.863,492.301,444.238,491.302 L444.238,491.302 L420.01,455.335 Q418.886,453.586,420.635,452.462 L420.635,452.462 Q421.009,452.087,421.759,452.087 L421.759,452.087 Q422.633,452.087,423.507,452.962 L423.507,452.962 Z M436.121,425.362 L413.266,425.362 L413.266,496.047 Q413.266,498.171,411.268,498.171 L411.268,498.171 Q409.145,498.171,409.145,496.047 L409.145,496.047 L409.145,423.364 Q409.145,422.489,409.707,421.865 Q410.269,421.241,411.268,421.241 L411.268,421.241 L436.121,421.241 Q440.617,421.241,444.426,422.052 Q448.235,422.864,450.92,424.862 Q453.605,426.86,455.103,430.17 Q456.602,433.479,456.602,438.475 L456.602,438.475 Q456.602,456.084,436.87,456.084 L436.87,456.084 L432.998,456.084 Q432.124,456.084,431.5,455.459 Q430.875,454.835,430.875,453.961 L430.875,453.961 Q430.875,453.087,431.5,452.525 Q432.124,451.963,432.998,451.963 L432.998,451.963 L436.87,451.963 Q444.113,451.963,448.297,449.09 Q452.481,446.218,452.481,438.475 L452.481,438.475 Q452.481,434.478,451.294,431.918 Q450.108,429.358,447.985,427.922 Q445.862,426.486,442.802,425.924 Q439.742,425.362,436.121,425.362 L436.121,425.362 Z M443.739,465.325 L443.739,465.325 L463.97,494.923 Q465.094,496.672,463.471,497.796 L463.471,497.796 Q462.971,498.171,462.347,498.171 L462.347,498.171 Q461.223,498.171,460.598,497.296 L460.598,497.296 L438.369,464.576 Q437.619,463.702,438.244,462.453 L438.244,462.453 Q438.868,461.329,440.117,461.329 L440.117,461.329 Q445.362,461.329,449.733,459.706 Q454.104,458.082,457.226,455.085 Q460.349,452.087,462.035,447.841 Q463.721,443.595,463.721,438.225 L463.721,438.225 Q463.721,426.236,457.726,420.928 Q451.731,415.621,440.117,415.621 L440.117,415.621 L422.383,415.621 Q420.385,415.621,420.385,413.498 L420.385,413.498 Q420.385,411.499,422.383,411.499 L422.383,411.499 L440.117,411.499 Q453.355,411.499,460.598,417.931 Q467.842,424.363,467.842,438.225 L467.842,438.225 Q467.842,449.715,461.41,456.771 Q454.978,463.827,443.739,465.325 Z M450.483,493.8 L450.483,493.8 Q451.482,494.049,451.856,494.861 Q452.231,495.673,451.981,496.672 L451.981,496.672 L451.856,496.672 Q451.482,498.171,449.733,498.171 L449.733,498.171 Q448.359,497.796,447.86,496.984 Q447.36,496.172,447.61,495.298 L447.61,495.298 L447.61,495.173 Q448.235,493.675,449.733,493.675 L449.733,493.675 Q450.233,493.675,450.483,493.8 Z M535.031,498.67 L489.697,498.67 Q488.823,498.67,488.198,498.046 Q487.574,497.421,487.574,496.547 L487.574,496.547 L487.574,460.33 Q487.574,459.456,488.198,458.831 Q488.823,458.207,489.697,458.207 L489.697,458.207 L523.791,458.207 Q524.665,458.207,525.289,458.831 Q525.914,459.456,525.914,460.33 L525.914,460.33 Q525.914,461.204,525.289,461.766 Q524.665,462.328,523.791,462.328 L523.791,462.328 L491.695,462.328 L491.695,494.549 L535.031,494.549 Q537.029,494.549,537.029,496.547 L537.029,496.547 Q537.029,497.421,536.467,498.046 Q535.905,498.67,535.031,498.67 L535.031,498.67 Z M523.791,451.463 L489.697,451.463 Q488.823,451.463,488.198,450.839 Q487.574,450.214,487.574,449.34 L487.574,449.34 L487.574,412.873 Q487.574,411.999,488.198,411.375 Q488.823,410.75,489.697,410.75 L489.697,410.75 Q490.571,410.75,491.133,411.375 Q491.695,411.999,491.695,412.873 L491.695,412.873 L491.695,447.342 L523.791,447.342 Q524.665,447.342,525.289,447.904 Q525.914,448.466,525.914,449.34 L525.914,449.34 Q525.914,450.214,525.289,450.839 Q524.665,451.463,523.791,451.463 L523.791,451.463 Z M500.312,421.99 L534.781,421.99 Q535.655,421.99,536.279,422.614 Q536.904,423.239,536.904,424.113 L536.904,424.113 Q536.904,424.987,536.279,425.549 Q535.655,426.111,534.781,426.111 L534.781,426.111 L502.435,426.111 L502.435,440.098 Q502.435,440.973,501.811,441.597 Q501.186,442.221,500.312,442.221 L500.312,442.221 Q499.438,442.221,498.876,441.597 Q498.314,440.973,498.314,440.098 L498.314,440.098 L498.314,424.113 Q498.314,423.239,498.876,422.614 Q499.438,421.99,500.312,421.99 L500.312,421.99 Z M535.031,415.246 L499.938,415.246 Q499.063,415.246,498.501,414.622 Q497.939,413.997,497.939,413.123 L497.939,413.123 Q497.939,411.125,499.938,411.125 L499.938,411.125 L535.031,411.125 Q535.905,411.125,536.529,411.687 Q537.154,412.249,537.154,413.123 L537.154,413.123 Q537.154,413.997,536.529,414.622 Q535.905,415.246,535.031,415.246 L535.031,415.246 Z M500.312,467.074 L500.312,467.074 Q501.186,467.074,501.811,467.636 Q502.435,468.198,502.435,469.197 L502.435,469.197 L502.435,483.933 L527.413,483.933 Q528.287,483.933,528.911,484.558 Q529.536,485.182,529.536,486.057 L529.536,486.057 Q529.536,486.931,528.911,487.493 Q528.287,488.055,527.413,488.055 L527.413,488.055 L500.312,488.055 Q498.314,488.055,498.314,486.057 L498.314,486.057 L498.314,469.197 Q498.314,467.074,500.312,467.074 Z M535.155,483.809 L535.155,483.809 Q536.03,484.058,536.404,484.87 Q536.779,485.682,536.529,486.556 L536.529,486.556 L536.529,486.681 Q535.905,488.18,534.406,488.18 L534.406,488.18 Q533.032,487.805,532.533,486.993 Q532.033,486.181,532.283,485.182 L532.283,485.182 Q532.908,483.684,534.406,483.684 L534.406,483.684 Q534.906,483.684,535.155,483.809 Z M603.094,498.67 L557.76,498.67 Q556.886,498.67,556.261,498.046 Q555.637,497.421,555.637,496.547 L555.637,496.547 L555.637,460.33 Q555.637,459.456,556.261,458.831 Q556.886,458.207,557.76,458.207 L557.76,458.207 L591.854,458.207 Q592.728,458.207,593.353,458.831 Q593.977,459.456,593.977,460.33 L593.977,460.33 Q593.977,461.204,593.353,461.766 Q592.728,462.328,591.854,462.328 L591.854,462.328 L559.758,462.328 L559.758,494.549 L603.094,494.549 Q605.092,494.549,605.092,496.547 L605.092,496.547 Q605.092,497.421,604.53,498.046 Q603.968,498.67,603.094,498.67 L603.094,498.67 Z M591.854,451.463 L557.76,451.463 Q556.886,451.463,556.261,450.839 Q555.637,450.214,555.637,449.34 L555.637,449.34 L555.637,412.873 Q555.637,411.999,556.261,411.375 Q556.886,410.75,557.76,410.75 L557.76,410.75 Q558.634,410.75,559.196,411.375 Q559.758,411.999,559.758,412.873 L559.758,412.873 L559.758,447.342 L591.854,447.342 Q592.728,447.342,593.353,447.904 Q593.977,448.466,593.977,449.34 L593.977,449.34 Q593.977,450.214,593.353,450.839 Q592.728,451.463,591.854,451.463 L591.854,451.463 Z M568.375,421.99 L602.844,421.99 Q603.718,421.99,604.343,422.614 Q604.967,423.239,604.967,424.113 L604.967,424.113 Q604.967,424.987,604.343,425.549 Q603.718,426.111,602.844,426.111 L602.844,426.111 L570.498,426.111 L570.498,440.098 Q570.498,440.973,569.874,441.597 Q569.249,442.221,568.375,442.221 L568.375,442.221 Q567.501,442.221,566.939,441.597 Q566.377,440.973,566.377,440.098 L566.377,440.098 L566.377,424.113 Q566.377,423.239,566.939,422.614 Q567.501,421.99,568.375,421.99 L568.375,421.99 Z M603.094,415.246 L568.001,415.246 Q567.126,415.246,566.564,414.622 Q566.002,413.997,566.002,413.123 L566.002,413.123 Q566.002,411.125,568.001,411.125 L568.001,411.125 L603.094,411.125 Q603.968,411.125,604.592,411.687 Q605.217,412.249,605.217,413.123 L605.217,413.123 Q605.217,413.997,604.592,414.622 Q603.968,415.246,603.094,415.246 L603.094,415.246 Z M568.375,467.074 L568.375,467.074 Q569.249,467.074,569.874,467.636 Q570.498,468.198,570.498,469.197 L570.498,469.197 L570.498,483.933 L595.476,483.933 Q596.35,483.933,596.974,484.558 Q597.599,485.182,597.599,486.057 L597.599,486.057 Q597.599,486.931,596.974,487.493 Q596.35,488.055,595.476,488.055 L595.476,488.055 L568.375,488.055 Q566.377,488.055,566.377,486.057 L566.377,486.057 L566.377,469.197 Q566.377,467.074,568.375,467.074 Z M603.219,483.809 L603.219,483.809 Q604.093,484.058,604.467,484.87 Q604.842,485.682,604.592,486.556 L604.592,486.556 L604.592,486.681 Q603.968,488.18,602.469,488.18 L602.469,488.18 Q601.096,487.805,600.596,486.993 Q600.096,486.181,600.346,485.182 L600.346,485.182 Q600.971,483.684,602.469,483.684 L602.469,483.684 Q602.969,483.684,603.219,483.809 Z M637.687,455.085 L637.687,490.428 Q637.687,492.426,635.564,492.426 L635.564,492.426 Q633.566,492.426,633.566,490.428 L633.566,490.428 L633.566,455.085 Q633.566,452.962,635.564,452.962 L635.564,452.962 Q637.687,452.962,637.687,455.085 L637.687,455.085 Z M624.574,498.67 L624.574,498.67 Q622.576,498.67,622.576,496.672 L622.576,496.672 L622.576,413.248 Q622.576,411.624,624.075,411.25 L624.075,411.25 Q624.199,411.25,624.324,411.187 Q624.449,411.125,624.574,411.125 L624.574,411.125 Q625.698,411.125,626.323,412.124 L626.323,412.124 L677.776,495.548 Q678.9,497.296,677.151,498.42 L677.151,498.42 Q676.402,498.67,676.027,498.67 L676.027,498.67 Q674.903,498.67,674.279,497.671 L674.279,497.671 L626.697,420.491 L626.697,496.672 Q626.697,497.546,626.073,498.108 Q625.448,498.67,624.574,498.67 Z M674.279,473.693 L640.809,420.366 Q639.685,418.618,641.434,417.494 L641.434,417.494 Q641.808,417.244,642.558,417.244 L642.558,417.244 Q643.807,417.244,644.306,418.118 L644.306,418.118 L674.029,465.45 L674.029,413.248 Q674.029,412.374,674.591,411.749 Q675.153,411.125,676.027,411.125 L676.027,411.125 Q676.902,411.125,677.526,411.749 Q678.15,412.374,678.15,413.248 L678.15,413.248 L678.15,472.569 Q678.15,474.192,676.652,474.567 L676.652,474.567 Q674.903,474.567,674.279,473.693 L674.279,473.693 Z M687.017,418.118 L687.017,418.118 Q688.016,418.118,688.578,418.743 Q689.14,419.367,689.14,420.241 L689.14,420.241 L689.14,496.672 Q689.14,498.67,687.017,498.67 L687.017,498.67 Q685.019,498.67,685.019,496.672 L685.019,496.672 L685.019,420.241 Q685.019,419.367,685.581,418.743 Q686.143,418.118,687.017,418.118 Z M687.017,415.496 L686.393,415.371 Q685.394,415.121,685.019,414.247 Q684.645,413.373,684.894,412.498 L684.894,412.498 L685.019,412.498 Q685.394,410.875,687.142,410.875 L687.142,410.875 Q687.392,410.875,687.454,410.937 Q687.517,411,687.767,411 L687.767,411 Q689.89,411.874,689.265,413.872 L689.265,413.872 L689.14,413.997 Q688.766,415.496,687.017,415.496 L687.017,415.496 Z M326.319,562.506 L326.319,562.506 Q323.196,561.614,323.939,559.235 L323.939,559.235 Q325.724,553.882,328.995,549.272 Q332.267,544.662,336.579,541.242 Q340.891,537.822,346.17,535.963 Q351.449,534.105,357.248,534.105 L357.248,534.105 Q364.683,534.105,371.226,537.153 Q377.769,540.201,382.676,545.703 L382.676,545.703 Q383.419,546.447,383.345,547.413 Q383.271,548.38,382.527,549.123 L382.527,549.123 Q381.932,549.718,380.891,549.718 L380.891,549.718 Q379.85,549.718,379.107,548.974 L379.107,548.974 Q374.795,544.216,369.144,541.614 Q363.494,539.012,357.248,539.012 L357.248,539.012 Q352.192,539.012,347.657,540.647 Q343.122,542.283,339.404,545.257 Q335.687,548.231,332.936,552.172 Q330.185,556.112,328.698,560.87 L328.698,560.87 Q327.954,562.506,326.319,562.506 Z M357.248,610.536 L357.248,610.536 Q349.813,610.536,343.568,607.637 Q337.322,604.737,332.638,599.83 Q327.954,594.923,325.129,588.454 Q322.304,581.986,322.006,574.848 L322.006,574.848 L312.489,574.848 Q310.11,574.848,310.11,572.469 L310.11,572.469 Q310.11,562.357,313.605,552.989 Q317.099,543.621,323.419,536.409 Q329.739,529.197,338.438,524.811 Q347.137,520.424,357.546,520.424 L357.546,520.424 Q365.129,520.424,372.044,522.878 Q378.958,525.331,384.683,529.718 Q390.408,534.105,394.795,540.127 Q399.181,546.149,401.709,553.138 L401.709,553.138 Q402.007,554.179,401.635,555.146 Q401.263,556.112,400.222,556.409 L400.222,556.409 Q400.074,556.409,399.925,556.484 Q399.776,556.558,399.479,556.558 L399.479,556.558 Q397.992,556.558,397.1,554.922 L397.1,554.922 Q394.869,548.677,390.929,543.25 Q386.988,537.822,381.858,533.807 Q376.728,529.792,370.557,527.562 Q364.386,525.331,357.546,525.331 L357.546,525.331 Q348.475,525.331,340.817,529.049 Q333.159,532.766,327.582,539.012 Q322.006,545.257,318.735,553.287 Q315.463,561.317,315.017,569.941 L315.017,569.941 L324.385,569.941 Q325.426,569.941,326.095,570.685 Q326.765,571.428,326.765,572.469 L326.765,572.469 Q326.765,578.863,328.995,584.886 Q331.226,590.908,335.241,595.518 Q339.255,600.127,344.906,602.878 Q350.557,605.629,357.248,605.629 L357.248,605.629 Q366.021,605.629,373.308,600.871 Q380.594,596.112,384.46,587.636 L384.46,587.636 Q385.204,586.298,386.691,586.298 L386.691,586.298 Q387.285,586.298,387.732,586.447 L387.732,586.447 Q388.624,586.893,388.921,587.86 Q389.219,588.826,388.921,589.718 L388.921,589.718 Q384.46,599.086,376.059,604.811 Q367.657,610.536,357.248,610.536 Z M357.546,624.514 L357.546,624.514 Q349.516,624.514,342.081,621.689 Q334.646,618.863,328.549,613.733 Q322.452,608.603,318.066,601.466 Q313.679,594.328,311.597,585.852 L311.597,585.852 Q311.3,584.811,311.895,583.993 Q312.489,583.175,313.53,582.878 L313.53,582.878 Q314.423,582.878,315.315,583.25 Q316.207,583.622,316.356,584.662 L316.356,584.662 Q318.14,591.8,321.932,598.194 Q325.724,604.588,331.077,609.347 Q336.43,614.105,343.122,616.856 Q349.813,619.607,357.546,619.607 L357.546,619.607 Q364.386,619.607,370.705,617.302 Q377.025,614.997,382.304,610.834 Q387.583,606.67,391.598,600.871 Q395.613,595.071,397.843,587.934 L397.843,587.934 Q398.289,586.149,400.222,586.149 L400.222,586.149 Q400.371,586.149,400.52,586.224 Q400.668,586.298,400.966,586.298 L400.966,586.298 Q403.048,587.042,402.602,589.421 L402.602,589.421 Q400.074,597.302,395.613,603.77 Q391.152,610.239,385.204,614.849 Q379.256,619.458,372.192,621.986 Q365.129,624.514,357.546,624.514 Z M385.65,556.707 L385.65,556.707 Q384.014,556.261,383.419,555.294 Q382.824,554.328,383.122,553.138 L383.122,553.138 Q383.865,551.354,385.65,551.354 L385.65,551.354 Q386.245,551.354,386.542,551.502 L386.542,551.502 Q387.583,551.8,388.029,552.766 Q388.475,553.733,388.178,554.922 L388.178,554.922 Q387.583,556.707,385.65,556.707 Z M413.903,571.726 L413.903,571.726 Q413.903,564.588,415.762,557.599 Q417.62,550.61,421.115,544.439 Q424.609,538.268,429.665,533.212 Q434.721,528.157,441.115,524.885 L441.115,524.885 Q441.412,524.588,442.304,524.588 L442.304,524.588 Q443.643,524.588,444.386,525.777 L444.386,525.777 Q444.981,526.818,444.609,527.785 Q444.238,528.751,443.345,529.197 L443.345,529.197 Q437.546,532.32,432.936,536.855 Q428.327,541.391,425.204,546.967 Q422.081,552.543,420.446,558.863 Q418.81,565.183,418.81,571.726 L418.81,571.726 Q418.81,580.796,422.007,589.347 Q425.204,597.897,430.929,604.44 Q436.654,610.982,444.609,614.923 Q452.565,618.863,462.082,618.863 L462.082,618.863 Q471.598,618.863,479.479,614.923 Q487.361,610.982,493.085,604.365 Q498.81,597.748,502.007,589.272 Q505.204,580.796,505.204,571.726 L505.204,571.726 Q505.204,562.952,502.23,554.699 Q499.256,546.447,493.903,539.978 Q488.55,533.51,481.041,529.346 Q473.531,525.183,464.461,524.588 L464.461,524.588 L464.461,535.145 Q464.461,537.525,462.082,537.525 L462.082,537.525 Q455.241,537.525,449.591,540.35 Q443.94,543.175,440,547.934 Q436.059,552.692,433.903,558.789 Q431.747,564.885,431.747,571.428 L431.747,571.428 Q431.747,577.822,433.903,583.919 Q436.059,590.016,440.074,594.774 Q444.089,599.532,449.665,602.358 Q455.241,605.183,462.082,605.183 L462.082,605.183 Q468.922,605.183,474.572,602.358 Q480.223,599.532,484.238,594.848 Q488.253,590.164,490.409,584.068 Q492.565,577.971,492.565,571.428 L492.565,571.428 Q492.565,560.722,487.435,552.246 Q482.305,543.77,473.531,539.904 L473.531,539.904 Q472.639,539.606,472.267,538.64 Q471.896,537.673,472.342,536.781 L472.342,536.781 Q472.788,535.294,474.572,535.294 L474.572,535.294 Q475.167,535.294,475.465,535.443 L475.465,535.443 Q480.52,537.673,484.535,541.316 Q488.55,544.96,491.45,549.644 Q494.349,554.328,495.911,559.83 Q497.472,565.331,497.472,571.428 L497.472,571.428 Q497.472,579.012,494.87,586.001 Q492.268,592.99,487.658,598.343 Q483.048,603.696,476.505,606.893 Q469.963,610.09,462.082,610.09 L462.082,610.09 Q454.2,610.09,447.732,606.819 Q441.264,603.547,436.579,598.194 Q431.895,592.841,429.368,585.852 Q426.84,578.863,426.84,571.428 L426.84,571.428 Q426.84,564.291,429.145,557.525 Q431.449,550.759,435.762,545.48 Q440.074,540.201,446.096,536.707 Q452.119,533.212,459.554,532.766 L459.554,532.766 L459.554,522.06 Q459.554,519.681,462.082,519.681 L462.082,519.681 Q472.639,519.681,481.413,524.067 Q490.186,528.454,496.58,535.666 Q502.974,542.878,506.543,552.246 Q510.112,561.614,510.112,571.726 L510.112,571.726 Q510.112,581.837,506.543,591.28 Q502.974,600.722,496.58,607.934 Q490.186,615.146,481.338,619.458 Q472.491,623.771,462.082,623.771 L462.082,623.771 Q451.524,623.771,442.676,619.458 Q433.829,615.146,427.434,607.934 Q421.04,600.722,417.472,591.28 Q413.903,581.837,413.903,571.726 Z M447.509,523.101 L447.509,522.952 Q447.955,521.168,450.037,521.168 L450.037,521.168 Q450.632,521.168,450.929,521.316 L450.929,521.316 Q451.97,521.614,452.416,522.655 Q452.862,523.696,452.565,524.736 L452.565,524.736 Q451.821,526.67,450.037,526.67 L450.037,526.67 Q448.252,526.075,447.658,525.108 Q447.063,524.142,447.509,523.101 L447.509,523.101 Z M564.238,525.629 L548.179,525.629 Q547.138,525.629,546.394,524.959 Q545.651,524.29,545.651,523.249 L545.651,523.249 Q545.651,522.209,546.394,521.465 Q547.138,520.722,548.179,520.722 L548.179,520.722 L564.238,520.722 Q570.632,520.722,576.58,522.803 Q582.528,524.885,587.584,528.454 Q592.64,532.023,596.655,537.004 Q600.67,541.986,603.049,547.785 L603.049,547.785 Q607.807,558.937,607.807,573.064 L607.807,573.064 Q607.807,583.473,605.131,592.767 Q602.454,602.06,597.027,608.975 Q591.599,615.889,583.421,619.979 Q575.242,624.068,564.238,624.068 L564.238,624.068 L548.327,624.068 Q547.287,624.068,546.543,623.399 Q545.8,622.73,545.8,621.689 L545.8,621.689 L545.8,547.19 Q545.8,546,546.543,545.331 Q547.287,544.662,548.327,544.662 L548.327,544.662 Q550.707,544.662,550.707,547.19 L550.707,547.19 L550.707,619.161 L564.238,619.161 Q575.986,619.161,585.279,613.287 Q594.573,607.414,598.885,596.41 L598.885,596.41 Q602.9,586.596,602.9,573.064 L602.9,573.064 Q602.9,562.357,599.703,552.469 Q596.506,542.58,588.328,535.294 L588.328,535.294 Q582.231,529.941,575.614,527.785 Q568.997,525.629,564.238,525.629 L564.238,525.629 Z M535.242,624.217 L535.242,624.217 Q534.201,624.217,533.532,623.473 Q532.863,622.73,532.863,621.689 L532.863,621.689 L532.863,535.889 Q532.863,534.848,533.532,534.105 Q534.201,533.361,535.242,533.361 L535.242,533.361 L560.967,533.361 Q571.227,533.361,579.183,539.012 Q587.138,544.662,591.302,553.733 L591.302,553.733 Q594.722,561.911,594.722,572.023 L594.722,572.023 Q594.722,578.417,593.309,584.365 Q591.897,590.313,588.923,595.295 Q585.949,600.276,581.339,604.068 Q576.729,607.86,570.335,609.941 L570.335,609.941 Q567.658,609.941,567.212,608.306 L567.212,608.306 Q566.915,607.265,567.361,606.373 Q567.807,605.48,568.848,605.183 L568.848,605.183 Q571.227,604.44,574.796,602.581 Q578.365,600.722,581.711,596.93 Q585.056,593.138,587.436,587.116 Q589.815,581.094,589.815,572.023 L589.815,572.023 Q589.815,564.291,587.51,557.525 Q585.205,550.759,579.406,545.406 L579.406,545.406 Q575.54,541.986,570.707,540.127 Q565.874,538.268,560.967,538.268 L560.967,538.268 L537.77,538.268 L537.77,621.689 Q537.77,622.73,537.026,623.473 Q536.283,624.217,535.242,624.217 Z M561.413,611.577 L561.413,611.577 Q559.629,611.131,559.034,610.164 Q558.439,609.198,558.885,608.008 L558.885,608.008 Q559.183,606.67,560.223,606.447 Q561.264,606.224,562.305,606.224 L562.305,606.224 Q563.346,606.67,563.792,607.637 Q564.238,608.603,563.941,609.644 L563.941,609.644 L563.941,609.793 Q563.197,611.577,561.413,611.577 Z M687.362,624.663 L633.384,624.663 Q632.343,624.663,631.599,623.919 Q630.856,623.176,630.856,622.135 L630.856,622.135 L630.856,579.012 Q630.856,577.971,631.599,577.227 Q632.343,576.484,633.384,576.484 L633.384,576.484 L673.979,576.484 Q675.02,576.484,675.763,577.227 Q676.507,577.971,676.507,579.012 L676.507,579.012 Q676.507,580.053,675.763,580.722 Q675.02,581.391,673.979,581.391 L673.979,581.391 L635.763,581.391 L635.763,619.756 L687.362,619.756 Q689.741,619.756,689.741,622.135 L689.741,622.135 Q689.741,623.176,689.072,623.919 Q688.403,624.663,687.362,624.663 L687.362,624.663 Z M673.979,568.454 L633.384,568.454 Q632.343,568.454,631.599,567.711 Q630.856,566.967,630.856,565.926 L630.856,565.926 L630.856,522.506 Q630.856,521.465,631.599,520.722 Q632.343,519.978,633.384,519.978 L633.384,519.978 Q634.425,519.978,635.094,520.722 Q635.763,521.465,635.763,522.506 L635.763,522.506 L635.763,563.547 L673.979,563.547 Q675.02,563.547,675.763,564.216 Q676.507,564.885,676.507,565.926 L676.507,565.926 Q676.507,566.967,675.763,567.711 Q675.02,568.454,673.979,568.454 L673.979,568.454 Z M646.023,533.361 L687.064,533.361 Q688.105,533.361,688.849,534.105 Q689.592,534.848,689.592,535.889 L689.592,535.889 Q689.592,536.93,688.849,537.599 Q688.105,538.268,687.064,538.268 L687.064,538.268 L648.551,538.268 L648.551,554.922 Q648.551,555.963,647.808,556.707 Q647.064,557.45,646.023,557.45 L646.023,557.45 Q644.982,557.45,644.313,556.707 Q643.644,555.963,643.644,554.922 L643.644,554.922 L643.644,535.889 Q643.644,534.848,644.313,534.105 Q644.982,533.361,646.023,533.361 L646.023,533.361 Z M687.362,525.331 L645.577,525.331 Q644.536,525.331,643.867,524.588 Q643.198,523.844,643.198,522.803 L643.198,522.803 Q643.198,520.424,645.577,520.424 L645.577,520.424 L687.362,520.424 Q688.403,520.424,689.146,521.093 Q689.89,521.762,689.89,522.803 L689.89,522.803 Q689.89,523.844,689.146,524.588 Q688.403,525.331,687.362,525.331 L687.362,525.331 Z M646.023,587.042 L646.023,587.042 Q647.064,587.042,647.808,587.711 Q648.551,588.38,648.551,589.57 L648.551,589.57 L648.551,607.116 L678.291,607.116 Q679.332,607.116,680.076,607.86 Q680.819,608.603,680.819,609.644 L680.819,609.644 Q680.819,610.685,680.076,611.354 Q679.332,612.023,678.291,612.023 L678.291,612.023 L646.023,612.023 Q643.644,612.023,643.644,609.644 L643.644,609.644 L643.644,589.57 Q643.644,587.042,646.023,587.042 Z M687.511,606.967 L687.511,606.967 Q688.551,607.265,688.998,608.231 Q689.444,609.198,689.146,610.239 L689.146,610.239 L689.146,610.388 Q688.403,612.172,686.618,612.172 L686.618,612.172 Q684.983,611.726,684.388,610.759 Q683.793,609.793,684.09,608.603 L684.09,608.603 Q684.834,606.819,686.618,606.819 L686.618,606.819 Q687.213,606.819,687.511,606.967 Z" id="def-1af529b2-4ada-4be0-ba67-3e946f9d3df8"></path><path d="M422.558,262.349 L422.303,261.614 L414.08,264.468 L405.833,240.708 L405.063,240.975 L413.565,265.47 Z M450.378,228.667 L455.005,254.179 L455.807,254.033 L451.18,228.521 Z M494.009,224.047 C490.084,224.131,488.666,227.126,488.744,230.718 L489.03,243.901 C489.107,247.493,490.653,250.424,494.578,250.339 C498.54,250.253,499.958,247.259,499.88,243.667 L499.737,237.075 L494.886,237.18 L494.902,237.921 L498.938,237.833 L499.066,243.721 C499.134,246.869,498.005,249.487,494.598,249.561 C491.154,249.635,489.913,247.069,489.845,243.921 L489.558,230.663 C489.49,227.516,490.618,224.861,494.062,224.786 C497.469,224.713,498.711,227.316,498.779,230.464 L498.817,232.204 L499.631,232.187 L499.594,230.483 C499.517,226.891,497.971,223.961,494.009,224.047 Z M545.543,241.44 L543.58,253.88 L544.385,254.007 L548.427,228.395 L547.622,228.268 L545.659,240.708 L536.402,239.247 L538.365,226.808 L537.56,226.681 L533.519,252.292 L534.324,252.419 L536.287,239.979 Z M582.481,264.098 L590.743,240.344 L596.096,242.205 L596.351,241.471 L584.876,237.48 L584.621,238.214 L589.973,240.076 L581.711,263.831 Z M361.428,707.968 L347.086,729.568 L347.765,730.019 L362.107,708.419 Z M396.506,727.264 C393.086,725.747,390.562,727.447,388.996,730.885 C386.033,737.391,395.159,741.303,392.441,747.27 C391.136,750.135,388.995,751.887,385.894,750.474 C382.793,749.062,382.709,746.296,384.014,743.431 L384.552,742.251 L383.844,741.929 L383.322,743.075 C381.832,746.345,381.999,749.554,385.572,751.182 C389.179,752.825,391.709,750.843,393.198,747.574 C396.116,741.169,387.005,737.223,389.753,731.189 C391.027,728.391,393.132,726.541,396.233,727.954 C399.3,729.351,399.271,732.187,397.996,734.984 L397.781,735.456 L398.523,735.794 L398.723,735.356 C400.197,732.12,400.079,728.892,396.506,727.264 Z M469.001,748.038 L466.362,773.832 L467.172,773.915 L468.39,762.013 L471.559,762.337 C474.912,762.68,477.095,763.909,476.706,767.704 L476.292,771.757 C476.179,772.863,476.172,774.016,476.605,774.88 L477.49,774.97 C476.983,774.099,477.001,772.835,477.102,771.84 L477.517,767.787 C477.807,764.95,476.784,762.946,473.955,762.21 C476.845,761.984,478.275,760.38,478.599,757.211 L478.837,754.89 C479.199,751.353,477.955,748.954,474.122,748.562 Z M468.469,761.239 L469.732,748.895 L474.006,749.332 C477.323,749.671,478.339,751.749,478.018,754.881 L477.777,757.239 C477.37,761.219,475.212,761.929,471.638,761.563 Z M513.923,749.517 L515.41,775.403 L516.224,775.356 L514.737,749.47 Z M553.56,743.908 C549.725,744.751,548.914,747.963,549.685,751.472 L552.514,764.351 C553.285,767.861,555.368,770.437,559.203,769.595 C563.074,768.744,563.885,765.532,563.114,762.023 L561.7,755.583 L556.96,756.624 L557.119,757.348 L561.063,756.482 L562.326,762.234 C563.002,765.309,562.4,768.096,559.072,768.827 C555.708,769.566,553.994,767.288,553.318,764.213 L550.473,751.261 C549.797,748.186,550.391,745.363,553.755,744.624 C557.084,743.893,558.806,746.207,559.481,749.282 L559.855,750.983 L560.651,750.808 L560.285,749.144 C559.514,745.634,557.431,743.058,553.56,743.908 Z M605.274,741.318 L610.104,752.949 L610.856,752.636 L600.913,728.69 L600.161,729.003 L604.99,740.634 L596.335,744.227 L591.506,732.597 L590.753,732.909 L600.696,756.855 L601.449,756.543 L596.619,744.912 Z M649.413,731.862 L635.82,710.701 L640.589,707.638 L640.168,706.984 L629.946,713.55 L630.366,714.204 L635.135,711.141 L648.727,732.303 Z" fill="#fff" id="def-ccc997f6-c7f9-4b73-9af9-df7e195a5ee4"></path><g id="def-a280d3e2-3981-4b49-9a89-c64ca585b345"><use xlink:href="#def-f2ff6420-0505-417c-b2e0-4139ae06ed83" stroke-width="0"></use></g><mask id="mask-cf91f7e8-093d-42a9-85f6-573b5bbf0f0e" x="104.454" y="104.007" width="791.092" height="791.986" maskUnits="userSpaceOnUse" stroke-width="0"><rect x="140.413" y="139.966" width="719.174" height="720.068" fill="#000"></rect><use xlink:href="#def-a280d3e2-3981-4b49-9a89-c64ca585b345" fill="#fff" stroke="#fff"></use></mask><mask id="mask-56a6254d-e727-4696-8e86-4679a514c683" x="267.591" y="202.917" width="464.818" height="593.614" maskUnits="userSpaceOnUse" stroke-width="0"><rect x="288.719" y="224.045" width="422.562" height="551.358" fill="#000"></rect><use xlink:href="#def-1af529b2-4ada-4be0-ba67-3e946f9d3df8" fill="#fff" stroke="#fff"></use><use xlink:href="#def-ccc997f6-c7f9-4b73-9af9-df7e195a5ee4" fill="#fff" stroke="#fff"></use><use xlink:href="#def-9a3935ea-242e-4f03-8f08-aacd0ce79438" fill="#fff" stroke="#fff"></use></mask></defs><rect id="background-3f024dfe-37d8-4133-8991-1ec6d87c73c4" x="-166.667" y="0" width="1333.333" height="1000" fill="url(#gradient-63aaaa4f-bc57-48dd-a1b1-834d8b6c4b5d)"></rect><g mask="url(#mask-cf91f7e8-093d-42a9-85f6-573b5bbf0f0e)"><rect x="140.413" y="139.966" width="719.174" height="720.068" fill="#ffffff"></rect></g><g mask="url(#mask-56a6254d-e727-4696-8e86-4679a514c683)"><rect x="288.719" y="224.045" width="422.562" height="551.358" fill="#00572c"></rect></g><g opacity="0"><rect fill="none" stroke="#fff" stroke-dasharray="13.333" stroke-dashoffset="0" stroke-width="2.222" x="-156.667" y="10" width="1313.333" height="980"></rect><rect fill="none" stroke="#000" stroke-dasharray="13.333" stroke-dashoffset="13.333" stroke-width="2.222" x="-156.667" y="10" width="1313.333" height="980"></rect></g><g opacity="0"><rect fill="none" stroke="#fff" stroke-dasharray="6.667" stroke-dashoffset="0" stroke-width="2.222" x="-156.667" y="10" width="1313.333" height="980"></rect><rect fill="none" stroke="#000" stroke-dasharray="6.667" stroke-dashoffset="6.667" stroke-width="2.222" x="-156.667" y="10" width="1313.333" height="980"></rect></g></svg>